<?xml version="1.0" encoding="UTF-8" standalone="no"?>
<svg
   xmlns:dc="http://purl.org/dc/elements/1.1/"
   xmlns:cc="http://creativecommons.org/ns#"
   xmlns:rdf="http://www.w3.org/1999/02/22-rdf-syntax-ns#"
   xmlns:svg="http://www.w3.org/2000/svg"
   xmlns="http://www.w3.org/2000/svg"
   xmlns:sodipodi="http://sodipodi.sourceforge.net/DTD/sodipodi-0.dtd"
   xmlns:inkscape="http://www.inkscape.org/namespaces/inkscape"
   inkscape:version="1.0 (4035a4fb49, 2020-05-01)"
   sodipodi:docname="support2.svg"
   id="svg1446"
   viewBox="0 0 60.325 60.325"
   version="1.1"
   height="228"
   width="228">
  <metadata
     id="metadata1452">
    <rdf:RDF>
      <cc:Work
         rdf:about="">
        <dc:format>image/svg+xml</dc:format>
        <dc:type
           rdf:resource="http://purl.org/dc/dcmitype/StillImage" />
        <dc:title></dc:title>
      </cc:Work>
    </rdf:RDF>
  </metadata>
  <defs
     id="defs1450" />
  <sodipodi:namedview
     inkscape:current-layer="svg1446"
     inkscape:window-maximized="1"
     inkscape:window-y="-8"
     inkscape:window-x="-8"
     inkscape:cy="114"
     inkscape:cx="59.682353"
     inkscape:zoom="3.7280702"
     showgrid="false"
     id="namedview1448"
     inkscape:window-height="1017"
     inkscape:window-width="1920"
     inkscape:pageshadow="2"
     inkscape:pageopacity="0"
     guidetolerance="10"
     gridtolerance="10"
     objecttolerance="10"
     borderopacity="1"
     bordercolor="#666666"
     pagecolor="#ffffff" />
  <path
     style="fill:#333333;fill-opacity:1"
     id="path1444"
     d="m40.777 54.38c0 1.8962-1.6187 4.3473-3.6536 4.3473h-13.922c-2.0349 0-3.6536-2.4511-3.6536-4.3473v-13.597h-13.597c-1.8962 0-4.3473-1.6187-4.3473-3.6536v-13.922c0-2.0349 2.4511-3.6536 4.3473-3.6536h13.597v-13.597c0-1.8962 1.6187-4.3473 3.6536-4.3473h13.922c2.0349 0 3.6536 2.4511 3.6536 4.3473v13.597h13.597c1.8962 0 4.3473 1.6187 4.3473 3.6536v13.922c0 2.0349-2.4511 3.6536-4.3473 3.6536h-13.597z" />
</svg>
